<svg width="106" height="106" viewBox="0 0 106 106" fill="none" xmlns="http://www.w3.org/2000/svg">
<path d="M66.0046 56.7802L66.6262 53.6722C66.8486 52.5619 66.6348 51.4086 66.0292 50.4519C65.4237 49.4951 64.4728 48.8083 63.3742 48.5342C56.8269 46.8974 49.9773 46.8974 43.43 48.5342C42.3314 48.8083 41.3805 49.4951 40.7749 50.4519C40.1693 51.4086 39.9556 52.5619 40.178 53.6722L40.8031 56.7802C41.389 59.6904 42.9642 62.3081 45.2612 64.1887C47.5581 66.0693 50.4352 67.0968 53.4038 67.0968C56.3725 67.0968 59.2495 66.0693 61.5465 64.1887C63.8435 62.3081 65.4187 59.6904 66.0046 56.7802Z" fill="#707070"/>
<path d="M35.8436 39.0188C35.8436 39.0188 35.8436 43.5808 38.1685 48.055C39.2221 46.6502 40.7498 45.5861 42.5795 45.1295C49.686 43.353 57.1205 43.353 64.227 45.1295C66.0567 45.5861 67.5843 46.6502 68.6379 48.055C70.9628 43.5808 70.9628 39.0188 70.9628 39.0188H35.8436ZM65.6949 31.995C67.0921 31.995 68.432 31.44 69.4199 30.452C70.4078 29.4641 70.9628 28.1242 70.9628 26.7271C70.9628 25.33 70.4078 23.9901 69.4199 23.0021C68.432 22.0142 67.0921 21.4592 65.6949 21.4592C64.2978 21.4592 62.9579 22.0142 61.97 23.0021C60.9821 23.9901 60.4271 25.33 60.4271 26.7271C60.4271 28.1242 60.9821 29.4641 61.97 30.452C62.9579 31.44 64.2978 31.995 65.6949 31.995ZM38.3863 21.6454C38.1799 21.5399 37.9547 21.4764 37.7236 21.4584C37.4926 21.4404 37.2603 21.4684 37.0401 21.5406C36.8199 21.6128 36.6162 21.7279 36.4407 21.8793C36.2652 22.0306 36.1214 22.2152 36.0176 22.4224C35.9137 22.6296 35.8519 22.8553 35.8358 23.0864C35.8196 23.3176 35.8493 23.5497 35.9232 23.7693C35.9972 23.989 36.1139 24.1918 36.2665 24.3661C36.4192 24.5404 36.6049 24.6828 36.8129 24.785L40.6971 26.7271L36.8129 28.6692C36.5994 28.7678 36.4079 28.9083 36.2498 29.0823C36.0916 29.2564 35.97 29.4604 35.8922 29.6823C35.8144 29.9042 35.782 30.1395 35.7968 30.3742C35.8117 30.6089 35.8735 30.8382 35.9787 31.0486C36.0839 31.2589 36.2302 31.446 36.4091 31.5987C36.5879 31.7514 36.7956 31.8666 37.0198 31.9375C37.244 32.0084 37.4802 32.0336 37.7143 32.0115C37.9485 31.9894 38.1758 31.9205 38.3827 31.8088L45.4066 28.2969C45.6979 28.1509 45.9428 27.9268 46.1139 27.6495C46.2851 27.3723 46.3757 27.0529 46.3757 26.7271C46.3757 26.4013 46.2851 26.0819 46.1139 25.8046C45.9428 25.5274 45.6979 25.3033 45.4066 25.1573L38.3863 21.6454Z" fill="#707070"/>
<path d="M14.6879 33.1564C17.4764 14.308 34.007 0.386719 53.4244 0.386719C72.8348 0.386719 89.411 14.3044 92.1608 33.1634L92.1784 33.2758L92.8281 39.0178H99.9362C105.327 39.0178 107.993 45.55 104.21 49.3323L95.0371 58.509L98.9494 93.0487C99.8625 99.4825 94.9633 105.407 88.3785 105.713H88.368C86.2147 105.815 84.0634 105.474 82.047 104.712C80.0306 103.95 78.1921 102.782 76.6452 101.281C74.9995 99.7065 72.81 98.8279 70.5327 98.8279C68.2554 98.8279 66.0659 99.7065 64.4202 101.281C58.334 107.205 48.4796 107.205 42.3934 101.281C40.7476 99.7054 38.5573 98.8262 36.2792 98.8262C34.0011 98.8262 31.8108 99.7054 30.1649 101.281C28.4611 102.938 26.405 104.188 24.1501 104.939C21.8953 105.69 19.4998 105.922 17.1428 105.618C10.874 104.821 7.02843 98.8433 7.86427 93.1084L11.7871 58.6284L2.49103 49.3323C-1.29482 45.55 1.37424 39.0178 6.76504 39.0178H14.0171L14.6704 33.2723L14.6879 33.1564ZM21.6415 34.1292L20.6441 42.9266C20.5466 43.784 20.1368 44.5755 19.493 45.1501C18.8491 45.7246 18.0162 46.042 17.1533 46.0416H9.13207L17.9505 54.8601C18.3243 55.2334 18.609 55.6862 18.7835 56.1848C18.958 56.6834 19.0178 57.2149 18.9584 57.7398L14.8354 93.9653C14.8304 94.0099 14.8246 94.0544 14.8179 94.0987C14.4737 96.3464 16.0295 98.3973 18.0278 98.6502C20.6231 98.9768 23.2956 98.169 25.2658 96.248C31.352 90.3199 41.2064 90.3199 47.2926 96.248C48.9382 97.8221 51.1278 98.7007 53.4051 98.7007C55.6824 98.7007 57.8719 97.8221 59.5176 96.248C65.6072 90.3199 75.4617 90.3199 81.5478 96.248C82.408 97.0807 83.4301 97.7277 84.5508 98.1488C85.6715 98.5699 86.8668 98.7561 88.0624 98.6958C90.5418 98.5764 92.3329 96.3253 91.9923 94.0109C91.9859 93.9712 91.98 93.9314 91.9747 93.8915L87.8658 57.6134C87.8069 57.0891 87.867 56.5582 88.0415 56.0603C88.216 55.5623 88.5004 55.1101 88.8737 54.7372L97.5657 46.0416H89.6885C88.8255 46.042 87.9926 45.7246 87.3488 45.1501C86.7049 44.5755 86.2951 43.784 86.1976 42.9266L85.2002 34.1222C82.9561 18.884 69.4703 7.41055 53.4209 7.41055C37.3819 7.41055 23.9243 18.877 21.6415 34.1292Z" fill="#8F8E94"/>
</svg>
