<svg width="101" height="101" viewBox="0 0 101 101" fill="none" xmlns="http://www.w3.org/2000/svg">
<g clip-path="url(#clip0_915_8925)">
<path d="M50.0601 75.2827C51.4816 75.2827 52.674 74.8011 53.6373 73.8378C54.6005 72.8745 55.0805 71.6838 55.0772 70.2657C55.0738 68.8475 54.5922 67.6568 53.6323 66.6936C52.6723 65.7303 51.4816 65.2487 50.0601 65.2487C48.6386 65.2487 47.4479 65.7303 46.488 66.6936C45.5281 67.6568 45.0465 68.8475 45.0431 70.2657C45.0398 71.6838 45.5214 72.8762 46.488 73.8428C47.4546 74.8094 48.6453 75.2894 50.0601 75.2827ZM45.0431 55.2146H55.0772V25.1125H45.0431V55.2146ZM50.0601 100.368C43.1199 100.368 36.5978 99.05 30.4937 96.4144C24.3897 93.7788 19.08 90.205 14.5647 85.693C10.0494 81.1811 6.47558 75.8714 3.84331 69.764C1.21105 63.6566 -0.106756 57.1345 -0.110101 50.1976C-0.113446 43.2607 1.20436 36.7386 3.84331 30.6312C6.48227 24.5238 10.0561 19.2141 14.5647 14.7021C19.0733 10.1902 24.383 6.61637 30.4937 3.98076C36.6045 1.34515 43.1266 0.0273438 50.0601 0.0273438C56.9937 0.0273437 63.5158 1.34515 69.6265 3.98076C75.7373 6.61637 81.047 10.1902 85.5556 14.7021C90.0642 19.2141 93.6397 24.5238 96.282 30.6312C98.9243 36.7386 100.24 43.2607 100.23 50.1976C100.22 57.1345 98.9025 63.6566 96.277 69.764C93.6514 75.8714 90.0776 81.1811 85.5556 85.693C81.0336 90.205 75.7239 93.7805 69.6265 96.4194C63.5292 99.0584 57.007 100.375 50.0601 100.368ZM50.0601 90.3338C61.2648 90.3338 70.7554 86.4456 78.5317 78.6692C86.3081 70.8928 90.1963 61.4023 90.1963 50.1976C90.1963 38.9929 86.3081 29.5024 78.5317 21.726C70.7554 13.9496 61.2648 10.0614 50.0601 10.0614C38.8554 10.0614 29.3649 13.9496 21.5885 21.726C13.8121 29.5024 9.92395 38.9929 9.92395 50.1976C9.92395 61.4023 13.8121 70.8928 21.5885 78.6692C29.3649 86.4456 38.8554 90.3338 50.0601 90.3338Z" fill="#FF4D5E"/>
</g>
<defs>
<clipPath id="clip0_915_8925">
<rect width="100.341" height="100.341" fill="white" transform="translate(0.391357 0.0273438)"/>
</clipPath>
</defs>
</svg>
