<svg width="106" height="106" viewBox="0 0 106 106" fill="none" xmlns="http://www.w3.org/2000/svg">
<path d="M65.43 57.0361L66.0516 53.928C66.274 52.8177 66.0602 51.6645 65.4547 50.7077C64.8491 49.7509 63.8982 49.0642 62.7996 48.7901C56.2523 47.1533 49.4027 47.1533 42.8554 48.7901C41.7568 49.0642 40.8059 49.7509 40.2003 50.7077C39.5948 51.6645 39.381 52.8177 39.6034 53.928L40.2285 57.0361C40.8144 59.9463 42.3896 62.5639 44.6866 64.4445C46.9836 66.3251 49.8606 67.3527 52.8293 67.3527C55.7979 67.3527 58.675 66.3251 60.9719 64.4445C63.2689 62.5639 64.8441 59.9463 65.43 57.0361Z" fill="#707070"/>
<path d="M35.269 39.2766C35.269 39.2766 35.269 43.8386 37.5939 48.3128C38.6475 46.908 40.1752 45.8439 42.0049 45.3874C49.1114 43.6108 56.5459 43.6108 63.6524 45.3874C65.4821 45.8439 67.0098 46.908 68.0633 48.3128C70.3882 43.8386 70.3882 39.2766 70.3882 39.2766H35.269ZM65.1203 32.2528C66.5175 32.2528 67.8574 31.6978 68.8453 30.7099C69.8332 29.7219 70.3882 28.382 70.3882 26.9849C70.3882 25.5878 69.8332 24.2479 68.8453 23.26C67.8574 22.272 66.5175 21.717 65.1203 21.717C63.7232 21.717 62.3833 22.272 61.3954 23.26C60.4075 24.2479 59.8525 25.5878 59.8525 26.9849C59.8525 28.382 60.4075 29.7219 61.3954 30.7099C62.3833 31.6978 63.7232 32.2528 65.1203 32.2528ZM37.8117 21.9032C37.6053 21.7977 37.3801 21.7342 37.1491 21.7162C36.918 21.6983 36.6857 21.7262 36.4655 21.7984C36.2453 21.8707 36.0416 21.9858 35.8661 22.1371C35.6906 22.2884 35.5468 22.473 35.443 22.6802C35.3391 22.8874 35.2774 23.1131 35.2612 23.3442C35.245 23.5754 35.2747 23.8075 35.3487 24.0271C35.4226 24.2468 35.5393 24.4496 35.692 24.6239C35.8447 24.7982 36.0303 24.9406 36.2383 25.0428L40.1225 26.9849L36.2383 28.927C36.0248 29.0256 35.8333 29.1661 35.6752 29.3401C35.517 29.5142 35.3954 29.7182 35.3176 29.9401C35.2398 30.1621 35.2074 30.3973 35.2223 30.632C35.2371 30.8667 35.299 31.096 35.4041 31.3064C35.5093 31.5167 35.6556 31.7038 35.8345 31.8565C36.0133 32.0092 36.221 32.1244 36.4452 32.1953C36.6695 32.2662 36.9056 32.2914 37.1398 32.2693C37.3739 32.2472 37.6012 32.1783 37.8082 32.0667L44.832 28.5547C45.1233 28.4087 45.3682 28.1846 45.5394 27.9074C45.7105 27.6301 45.8012 27.3107 45.8012 26.9849C45.8012 26.6591 45.7105 26.3397 45.5394 26.0625C45.3682 25.7852 45.1233 25.5611 44.832 25.4151L37.8117 21.9032Z" fill="#707070"/>
<path d="M14.1135 33.4142C16.9019 14.5658 33.4325 0.644531 52.8499 0.644531C72.2603 0.644531 88.8365 14.5623 91.5864 33.4213L91.6039 33.5336L92.2536 39.2756H99.3618C104.753 39.2756 107.418 45.8078 103.636 49.5901L94.4626 58.7668L98.3749 93.3065C99.288 99.7403 94.3889 105.665 87.804 105.97H87.7935C85.6403 106.073 83.4889 105.732 81.4726 104.97C79.4562 104.208 77.6177 103.04 76.0707 101.538C74.425 99.9643 72.2355 99.0857 69.9582 99.0857C67.6809 99.0857 65.4914 99.9643 63.8457 101.538C57.7596 107.463 47.9051 107.463 41.819 101.538C40.1731 99.9633 37.9829 99.084 35.7047 99.084C33.4266 99.084 31.2363 99.9633 29.5905 101.538C27.8867 103.195 25.8306 104.446 23.5757 105.197C21.3208 105.948 18.9254 106.18 16.5683 105.876C10.2995 105.078 6.45397 99.1011 7.2898 93.3662L11.2126 58.8862L1.91657 49.5901C-1.86928 45.8078 0.799779 39.2756 6.19057 39.2756H13.4427L14.0959 33.5301L14.1135 33.4142ZM21.0671 34.387L20.0697 43.1844C19.9722 44.0418 19.5624 44.8333 18.9185 45.4079C18.2746 45.9824 17.4418 46.2998 16.5788 46.2995H8.55761L17.376 55.1179C17.7498 55.4912 18.0346 55.944 18.2091 56.4426C18.3836 56.9412 18.4434 57.4727 18.384 57.9977L14.261 94.2231C14.256 94.2677 14.2501 94.3122 14.2434 94.3565C13.8992 96.6042 15.455 98.6551 17.4533 98.908C20.0486 99.2346 22.7212 98.4268 24.6914 96.5058C30.7775 90.5777 40.632 90.5777 46.7181 96.5058C48.3638 98.08 50.5533 98.9585 52.8306 98.9585C55.1079 98.9585 57.2974 98.08 58.9431 96.5058C65.0328 90.5777 74.8872 90.5777 80.9734 96.5058C81.8335 97.3385 82.8557 97.9855 83.9763 98.4066C85.097 98.8277 86.2923 99.0139 87.488 98.9536C89.9674 98.8342 91.7585 96.5831 91.4178 94.2687C91.4114 94.229 91.4056 94.1892 91.4002 94.1493L87.2913 57.8712C87.2324 57.3469 87.2925 56.816 87.467 56.3181C87.6415 55.8201 87.9259 55.3679 88.2992 54.995L96.9912 46.2995H89.114C88.251 46.2998 87.4182 45.9824 86.7743 45.4079C86.1304 44.8333 85.7206 44.0418 85.6231 43.1844L84.6258 34.38C82.3816 19.1418 68.8959 7.66837 52.8464 7.66837C36.8075 7.66837 23.3498 19.1348 21.0671 34.387Z" fill="#8F8E94"/>
</svg>
