<svg width="25" height="25" viewBox="0 0 25 25" fill="none" xmlns="http://www.w3.org/2000/svg">
<path d="M17.421 18.668C17.7797 18.668 18.0767 18.5498 18.3121 18.3134C18.5474 18.077 18.6656 17.78 18.6667 17.4223V7.5803C18.6667 7.22263 18.5485 6.92561 18.3121 6.68922C18.0757 6.45283 17.7787 6.33464 17.421 6.33464H13.2708C12.8381 6.33464 12.4733 6.48366 12.1762 6.78172C11.8782 7.07875 11.7292 7.44361 11.7292 7.8763V11.0676C11.4928 11.1909 11.2852 11.3677 11.1063 11.5979C10.9285 11.8271 10.8396 12.1282 10.8396 12.5013C10.8396 12.9741 10.9933 13.3687 11.3006 13.6853C11.6089 14.0029 12.0087 14.1617 12.5 14.1617C12.9327 14.1617 13.3176 14.0029 13.6547 13.6853C13.9918 13.3677 14.1604 12.9731 14.1604 12.5013C14.1604 12.1282 14.0684 11.8271 13.8844 11.5979C13.7004 11.3677 13.4959 11.1904 13.2708 11.066V7.8763H17.125V17.1263H7.87499V7.8763H8.64582C8.86577 7.8763 9.04923 7.80282 9.1962 7.65584C9.34317 7.50887 9.41666 7.32541 9.41666 7.10547C9.41666 6.88552 9.34317 6.70207 9.1962 6.55509C9.04923 6.40812 8.86577 6.33464 8.64582 6.33464H7.57899C7.22132 6.33464 6.92429 6.45283 6.68791 6.68922C6.45152 6.92561 6.33332 7.22263 6.33332 7.5803V17.4223C6.33332 17.781 6.45152 18.078 6.68791 18.3134C6.92429 18.5487 7.22132 18.6669 7.57899 18.668H17.421ZM2.65799 24.8346C1.9478 24.8346 1.35528 24.5972 0.880448 24.1224C0.405615 23.6476 0.167684 23.0545 0.166656 22.3433V2.6593C0.166656 1.94911 0.404587 1.35659 0.880448 0.88176C1.35631 0.406927 1.94882 0.168997 2.65799 0.167969H22.3435C23.0527 0.167969 23.6452 0.405899 24.1211 0.88176C24.5969 1.35762 24.8344 1.95014 24.8333 2.6593V22.3448C24.8333 23.054 24.5959 23.6465 24.1211 24.1224C23.6462 24.5982 23.0532 24.8357 22.342 24.8346H2.65799ZM2.65799 23.293H22.3435C22.5799 23.293 22.7973 23.1943 22.9957 22.997C23.194 22.7996 23.2927 22.5817 23.2917 22.3433V2.6593C23.2917 2.42189 23.193 2.204 22.9957 2.00564C22.7983 1.80727 22.5804 1.70861 22.342 1.70964H2.65799C2.42057 1.70964 2.20268 1.8083 2.00432 2.00564C1.80596 2.20297 1.7073 2.42086 1.70832 2.6593V22.3448C1.70832 22.5812 1.80699 22.7986 2.00432 22.997C2.20166 23.1953 2.41903 23.294 2.65645 23.293" fill="#003366"/>
</svg>
