<svg width="70" height="81" viewBox="0 0 70 81" fill="none" xmlns="http://www.w3.org/2000/svg">
<path d="M42.6909 39.7304L48.4526 33.9687L51.9802 37.4963L42.6909 46.7856L35.91 40.0048L39.4376 36.4772L42.6909 39.7304ZM10.0802 60.8176H30.1483V65.8346H10.0802V60.8176ZM30.1483 25.6984H10.0802V20.6814H30.1483V25.6984ZM30.1483 45.7665H10.0802V40.7495H30.1483V45.7665ZM51.9802 17.4282L42.6909 26.7175L35.91 19.9367L39.4376 16.4091L42.6909 19.6623L48.4526 13.9006L51.9802 17.4282ZM35.2829 75.8687L40.2999 80.8857H0.0461426V0.613281H60.2505V50.9011L55.2334 55.9182V5.63031H5.06317V75.8687H35.2829ZM69.5398 57.5644L47.7079 79.4355L37.1643 68.8527L40.6919 65.3251L47.7079 72.3019L66.0122 54.0368L69.5398 57.5644Z" fill="#28A745"/>
</svg>
