<svg width="25" height="24" viewBox="0 0 25 24" fill="none" xmlns="http://www.w3.org/2000/svg">
<path fill-rule="evenodd" clip-rule="evenodd" d="M21.394 2.66536H3.93941C3.65009 2.66536 3.37261 2.78828 3.16803 3.00707C2.96344 3.22587 2.84851 3.52261 2.84851 3.83203V20.1654C2.84851 20.4748 2.96344 20.7715 3.16803 20.9903C3.37261 21.2091 3.65009 21.332 3.93941 21.332H21.394C21.6833 21.332 21.9608 21.2091 22.1653 20.9903C22.3699 20.7715 22.4849 20.4748 22.4849 20.1654V3.83203C22.4849 3.52261 22.3699 3.22587 22.1653 3.00707C21.9608 2.78828 21.6833 2.66536 21.394 2.66536ZM3.93941 0.332031C3.07143 0.332031 2.239 0.70078 1.62525 1.35716C1.01149 2.01354 0.666687 2.90377 0.666687 3.83203V20.1654C0.666687 21.0936 1.01149 21.9839 1.62525 22.6402C2.239 23.2966 3.07143 23.6654 3.93941 23.6654H21.394C22.2619 23.6654 23.0944 23.2966 23.7081 22.6402C24.3219 21.9839 24.6667 21.0936 24.6667 20.1654V3.83203C24.6667 2.90377 24.3219 2.01354 23.7081 1.35716C23.0944 0.70078 22.2619 0.332031 21.394 0.332031H3.93941ZM6.12123 6.16536H8.30305V8.4987H6.12123V6.16536ZM11.5758 6.16536C11.2865 6.16536 11.009 6.28828 10.8044 6.50707C10.5998 6.72587 10.4849 7.02261 10.4849 7.33203C10.4849 7.64145 10.5998 7.9382 10.8044 8.15699C11.009 8.37578 11.2865 8.4987 11.5758 8.4987H18.1212C18.4106 8.4987 18.688 8.37578 18.8926 8.15699C19.0972 7.9382 19.2121 7.64145 19.2121 7.33203C19.2121 7.02261 19.0972 6.72587 18.8926 6.50707C18.688 6.28828 18.4106 6.16536 18.1212 6.16536H11.5758ZM8.30305 10.832H6.12123V13.1654H8.30305V10.832ZM10.4849 11.9987C10.4849 11.6893 10.5998 11.3925 10.8044 11.1737C11.009 10.9549 11.2865 10.832 11.5758 10.832H18.1212C18.4106 10.832 18.688 10.9549 18.8926 11.1737C19.0972 11.3925 19.2121 11.6893 19.2121 11.9987C19.2121 12.3081 19.0972 12.6049 18.8926 12.8237C18.688 13.0424 18.4106 13.1654 18.1212 13.1654H11.5758C11.2865 13.1654 11.009 13.0424 10.8044 12.8237C10.5998 12.6049 10.4849 12.3081 10.4849 11.9987ZM8.30305 15.4987H6.12123V17.832H8.30305V15.4987ZM10.4849 16.6654C10.4849 16.3559 10.5998 16.0592 10.8044 15.8404C11.009 15.6216 11.2865 15.4987 11.5758 15.4987H18.1212C18.4106 15.4987 18.688 15.6216 18.8926 15.8404C19.0972 16.0592 19.2121 16.3559 19.2121 16.6654C19.2121 16.9748 19.0972 17.2715 18.8926 17.4903C18.688 17.7091 18.4106 17.832 18.1212 17.832H11.5758C11.2865 17.832 11.009 17.7091 10.8044 17.4903C10.5998 17.2715 10.4849 16.9748 10.4849 16.6654Z" fill="#929292"/>
</svg>
